HIERARCHY
ROOT Hips
{
	OFFSET 0.000000 0.000000 0.000000
	CHANNELS 6 Xposition Yposition Zposition Zrotation Yrotation Xrotation 
	JOINT LowerBack
	{
		OFFSET 0.000000 0.000000 0.000000
		CHANNELS 3 Zrotation Yrotation Xrotation
		JOINT Spine
		{
			OFFSET 0.028270 2.035590 -0.193380
			CHANNELS 3 Zrotation Yrotation Xrotation
			JOINT Spine1
			{
				OFFSET 0.056720 2.048850 -0.042750
				CHANNELS 3 Zrotation Yrotation Xrotation
				JOINT Neck
				{
					OFFSET 0.000000 0.000000 0.000000
					CHANNELS 3 Zrotation Yrotation Xrotation
					JOINT Neck1
					{
						OFFSET -0.054170 1.746240 0.172020
						CHANNELS 3 Zrotation Yrotation Xrotation
						JOINT Head
						{
							OFFSET 0.104070 1.761360 -0.123970
							CHANNELS 3 Zrotation Yrotation Xrotation
							End Site
							{
								OFFSET 0.000000 0.000000 0.000000
							}
						}
					}
				}
				JOINT LeftShoulder
				{
					OFFSET 0.000000 0.000000 0.000000
					CHANNELS 3 Zrotation Yrotation Xrotation
					JOINT LeftArm
					{
						OFFSET 3.362410 1.200890 -0.311210
						CHANNELS 3 Zrotation Yrotation Xrotation
						JOINT LeftForeArm
						{
							OFFSET 4.983000 -0.000000 -0.000000
							CHANNELS 3 Zrotation Yrotation Xrotation
							JOINT LeftHand
							{
								OFFSET 3.483560 -0.000000 -0.000000
								CHANNELS 3 Zrotation Yrotation Xrotation
								JOINT LeftFingerBase
								{
									OFFSET 0.000000 0.000000 0.000000
									CHANNELS 3 Zrotation Yrotation Xrotation
									JOINT LeftHandIndex1
									{
										OFFSET 0.715260 -0.000000 -0.000000
										CHANNELS 3 Zrotation Yrotation Xrotation
										End Site
										{
											OFFSET 0.000000 0.000000 0.000000
										}
									}
								}
								JOINT LThumb
								{
									OFFSET 0.000000 0.000000 0.000000
									CHANNELS 3 Zrotation Yrotation Xrotation
									End Site
									{
										OFFSET 0.000000 0.000000 0.000000
									}
								}
							}
						}
					}
				}
				JOINT RightShoulder
				{
					OFFSET 0.000000 0.000000 0.000000
					CHANNELS 3 Zrotation Yrotation Xrotation
					JOINT RightArm
					{
						OFFSET -3.136600 1.374050 -0.404650
						CHANNELS 3 Zrotation Yrotation Xrotation
						JOINT RightForeArm
						{
							OFFSET -5.241900 -0.000000 -0.000000
							CHANNELS 3 Zrotation Yrotation Xrotation
							JOINT RightHand
							{
								OFFSET -3.444170 -0.000000 -0.000000
								CHANNELS 3 Zrotation Yrotation Xrotation
								JOINT RightFingerBase
								{
									OFFSET 0.000000 0.000000 0.000000
									CHANNELS 3 Zrotation Yrotation Xrotation
									JOINT RightHandIndex1
									{
										OFFSET -0.622530 -0.000000 -0.000000
										CHANNELS 3 Zrotation Yrotation Xrotation
										End Site
										{
											OFFSET 0.000000 0.000000 0.000000
										}
									}
								}
								JOINT RThumb
								{
									OFFSET 0.000000 0.000000 0.000000
									CHANNELS 3 Zrotation Yrotation Xrotation
									End Site
									{
										OFFSET 0.000000 0.000000 0.000000
									}
								}
							}
						}
					}
				}
			}
		}
	}
}
}
MOTION
Frames: 18
Frame Time: 0.008333
-1.370572 16.965302 -0.198426 37.720760 84.992493 49.878227 -3.812928 2.398784 -7.956584 -2.073331 2.375416 -4.216097 -7.490997 2.333205 1.863511 11.584009 -6.584960 -9.679946 -3.709483 -0.276919 -0.564996 0.000000 0.000000 0.000000 -2.861089 27.773805 0.880490 -63.146506 13.003135 -12.767876 -2.508657 -45.942782 0.011517 11.785219 0.248886 0.032232 -0.154155 -0.049798 -0.000000 0.000000 0.000000 0.000000 0.000000 0.000000 0.000000 18.742649 2.778546 -0.993042 69.307369 17.247439 7.244060 1.901131 53.802055 0.006182 -0.450934 7.847531 -0.033214 0.038744 -0.313798 -0.000000 0.000000 0.000000 0.000000 0.000000 0.000000 0.000000 
-1.207436 16.977325 -0.182364 40.640103 84.828202 52.517760 -4.062081 2.289833 -7.805973 -2.125831 2.299839 -4.188749 -7.513610 2.259519 1.852791 11.679938 -6.777983 -9.705539 -3.733247 -0.278444 -0.573791 0.000000 0.000000 0.000000 -2.740827 27.536308 0.857448 -63.197440 12.734844 -12.566292 -2.497147 -46.103293 0.010718 11.757275 0.359174 0.043431 -0.153889 -0.047440 -0.000000 0.000000 0.000000 0.000000 0.000000 0.000000 0.000000 19.025133 2.513865 -0.976925 69.798175 16.727784 6.774374 1.943231 53.050608 0.006148 -0.524868 7.842445 -0.038626 0.041308 -0.308688 -0.000000 0.000000 0.000000 0.000000 0.000000 0.000000 0.000000 
-1.046931 16.988859 -0.167505 42.897372 84.633756 54.518448 -4.273157 2.180315 -7.658585 -2.167892 2.218855 -4.160418 -7.528355 2.180062 1.845819 11.759006 -6.979417 -9.739138 -3.754533 -0.279660 -0.584450 0.000000 0.000000 0.000000 -2.654892 27.304644 0.832043 -63.284636 12.438345 -12.338472 -2.482819 -46.301564 0.009946 11.727286 0.448226 0.052333 -0.153572 -0.044912 -0.000000 0.000000 0.000000 0.000000 0.000000 0.000000 0.000000 19.279973 2.235525 -0.959618 70.256371 16.234114 6.322322 1.982966 52.302986 0.006014 -0.631959 7.852459 -0.046538 0.044206 -0.303683 0.000000 0.000000 0.000000 0.000000 0.000000 0.000000 0.000000 
-0.889184 16.999870 -0.153220 44.663395 84.407944 56.054770 -4.466461 2.065541 -7.519187 -2.203524 2.129819 -4.131385 -7.535865 2.092157 1.845190 11.828059 -7.192450 -9.781663 -3.773853 -0.280604 -0.597349 0.000000 0.000000 0.000000 -2.590257 27.082279 0.804743 -63.408880 12.106124 -12.088761 -2.466415 -46.525857 0.009223 11.705621 0.506307 0.057937 -0.153236 -0.042145 -0.000000 0.000000 0.000000 0.000000 0.000000 0.000000 0.000000 19.518885 1.938471 -0.941691 70.679723 15.773050 5.903767 2.020410 51.560619 0.005780 -0.773400 7.879352 -0.057049 0.047450 -0.298802 0.000000 0.000000 0.000000 0.000000 0.000000 0.000000 0.000000 
-0.734077 17.010557 -0.139685 45.893902 84.162312 57.091206 -4.629847 1.945669 -7.397168 -2.229987 2.031524 -4.103760 -7.536566 1.994406 1.849261 11.885259 -7.411294 -9.829539 -3.791754 -0.281388 -0.611338 0.000000 0.000000 0.000000 -2.553294 26.862402 0.775358 -63.565067 11.753538 -11.823239 -2.447578 -46.780412 0.008577 11.699876 0.528851 0.059943 -0.152881 -0.039206 -0.000000 0.000000 0.000000 0.000000 0.000000 0.000000 0.000000 19.739351 1.628097 -0.923292 71.066199 15.336504 5.523781 2.055762 50.826616 0.005479 -0.943166 7.923573 -0.069760 0.050965 -0.293995 0.000000 0.000000 0.000000 0.000000 0.000000 0.000000 0.000000 
-0.581647 17.021037 -0.126155 46.754826 83.891108 57.790963 -4.784259 1.817159 -7.291816 -2.251720 1.922694 -4.076696 -7.531343 1.885639 1.861194 11.938171 -7.638831 -9.884166 -3.808618 -0.282015 -0.627011 0.000000 0.000000 0.000000 -2.526579 26.653070 0.744480 -63.754421 11.362503 -11.539935 -2.427919 -47.041017 0.008008 11.715010 0.508964 0.057651 -0.152552 -0.035987 -0.000000 0.000000 0.000000 0.000000 0.000000 0.000000 0.000000 19.953796 1.300107 -0.905484 71.415480 14.928934 5.194080 2.089023 50.100858 0.005131 -1.138799 7.982258 -0.084671 0.054710 -0.289229 0.000000 0.000000 0.000000 0.000000 0.000000 0.000000 0.000000 
-0.431853 17.031605 -0.112665 47.242451 83.600959 58.149611 -4.922439 1.680501 -7.203859 -2.267261 1.803184 -4.051143 -7.520860 1.765614 1.877607 11.985203 -7.869268 -9.940978 -3.825116 -0.282604 -0.643050 0.000000 0.000000 0.000000 -2.514585 26.440843 0.712511 -63.969478 10.950795 -11.242017 -2.407180 -47.311865 0.007516 11.752342 0.449275 0.051263 -0.152228 -0.032559 -0.000000 0.000000 0.000000 0.000000 0.000000 0.000000 0.000000 20.160648 0.959926 -0.887627 71.727715 14.541105 4.914163 2.120439 49.383879 0.004766 -1.351607 8.051186 -0.101082 0.058579 -0.284424 0.000000 0.000000 0.000000 0.000000 0.000000 0.000000 0.000000 
-0.284646 17.042519 -0.098961 47.417555 83.291608 58.222043 -5.048181 1.535487 -7.129272 -2.277639 1.673371 -4.026246 -7.505878 1.634833 1.899008 12.028634 -8.101434 -9.999449 -3.841538 -0.283170 -0.659415 0.000000 0.000000 0.000000 -2.509948 26.228135 0.679982 -64.207235 10.509594 -10.924038 -2.386509 -47.575963 0.007083 11.810948 0.351620 0.040976 -0.151932 -0.028886 -0.000000 0.000000 0.000000 0.000000 0.000000 0.000000 0.000000 20.364005 0.608470 -0.870230 72.002758 14.170337 4.685853 2.150038 48.675892 0.004404 -1.574982 8.124228 -0.118695 0.062481 -0.279508 0.000000 0.000000 0.000000 0.000000 0.000000 0.000000 0.000000 
-0.140057 17.054075 -0.084895 47.317645 82.963402 58.038021 -5.161924 1.382889 -7.062323 -2.283256 1.534276 -4.001563 -7.487236 1.494377 1.922881 12.068575 -8.332272 -10.056693 -3.858363 -0.283778 -0.675378 0.000000 0.000000 0.000000 -2.510429 26.005584 0.647628 -64.461801 10.046022 -10.582218 -2.366142 -47.830581 0.006689 11.886740 0.223372 0.027290 -0.151650 -0.024997 -0.000000 0.000000 0.000000 0.000000 0.000000 0.000000 0.000000 20.564888 0.248808 -0.852714 72.242034 13.810192 4.505515 2.177931 47.977725 0.004069 -1.800531 8.194840 -0.136608 0.066310 -0.274425 0.000000 0.000000 0.000000 0.000000 0.000000 0.000000 0.000000 
0.001901 17.066454 -0.070465 46.957996 82.618088 57.605502 -5.259802 1.224435 -6.997219 -2.283664 1.387458 -3.976436 -7.465569 1.345928 1.947576 12.104005 -8.559711 -10.110952 -3.875693 -0.284445 -0.690491 0.000000 0.000000 0.000000 -2.514469 25.768513 0.616027 -64.727468 9.561417 -10.209459 -2.346469 -48.070415 0.006302 11.974215 0.074119 0.011206 -0.151387 -0.020907 -0.000000 0.000000 0.000000 0.000000 0.000000 0.000000 0.000000 20.761785 -0.116562 -0.834831 72.446518 13.455084 4.368827 2.204198 47.291076 0.003775 -2.020844 8.256568 -0.154224 0.069978 -0.269128 -0.000000 0.000000 0.000000 0.000000 0.000000 0.000000 0.000000 
0.141248 17.079784 -0.055766 46.346812 82.256910 56.925697 -5.336540 1.062358 -6.928525 -2.278184 1.234824 -3.950387 -7.441519 1.191515 1.971046 12.133223 -8.781920 -10.160488 -3.893585 -0.285187 -0.704290 0.000000 0.000000 0.000000 -2.521218 25.511174 0.585735 -64.998172 9.060220 -9.798082 -2.327516 -48.295249 0.005892 12.067070 -0.084758 -0.006179 -0.151142 -0.016639 -0.000000 0.000000 0.000000 0.000000 0.000000 0.000000 0.000000 20.952108 -0.484962 -0.816160 72.617809 13.099507 4.269654 2.228950 46.618802 0.003540 -2.229199 8.304420 -0.170944 0.073407 -0.263606 -0.000000 0.000000 0.000000 0.000000 0.000000 0.000000 0.000000 
0.278027 17.094117 -0.040892 45.488972 81.880591 55.998456 -5.385996 0.899019 -6.852136 -2.265930 1.078319 -3.923162 -7.415495 1.033198 1.991467 12.153911 -8.998223 -10.203882 -3.911821 -0.285995 -0.716364 0.000000 0.000000 0.000000 -2.530612 25.228199 0.557178 -65.268076 8.547538 -9.340619 -2.309112 -48.507949 0.005426 12.158699 -0.241274 -0.023564 -0.150922 -0.012209 -0.000000 0.000000 0.000000 0.000000 0.000000 0.000000 0.000000 21.131504 -0.854856 -0.796363 72.758478 12.738898 4.202006 2.252301 45.964822 0.003362 -2.420842 8.335278 -0.186063 0.076553 -0.257878 -0.000000 0.000000 0.000000 0.000000 0.000000 0.000000 0.000000 
0.412314 17.109379 -0.026006 44.390041 81.489790 54.825822 -5.401865 0.736526 -6.765642 -2.245964 0.919589 -3.894765 -7.387856 0.872730 2.007323 12.163672 -9.208848 -10.240209 -3.930031 -0.286847 -0.726412 0.000000 0.000000 0.000000 -2.542593 24.915440 0.530653 -65.531493 8.029851 -8.830412 -2.290800 -48.715697 0.004875 12.243484 -0.383535 -0.039649 -0.150744 -0.007628 -0.000000 0.000000 0.000000 0.000000 0.000000 0.000000 0.000000 21.295054 -1.225486 -0.775198 72.871442 12.369314 4.160107 2.274392 45.333748 0.003244 -2.592790 8.348193 -0.199387 0.079397 -0.251991 -0.000000 0.000000 0.000000 0.000000 0.000000 0.000000 0.000000 
0.544238 17.125445 -0.011292 43.054082 81.084538 53.411697 -5.376348 0.576754 -6.669469 -2.216935 0.759875 -3.866006 -7.358619 0.711367 2.016120 12.159047 -9.415740 -10.267819 -3.947807 -0.287740 -0.733853 0.000000 0.000000 0.000000 -2.559981 24.561393 0.506305 -65.781454 7.525919 -8.267889 -2.271318 -48.937774 0.004215 12.316227 -0.500075 -0.053135 -0.150605 -0.002933 -0.000000 0.000000 0.000000 0.000000 0.000000 0.000000 0.000000 21.436186 -1.598148 -0.751793 72.960963 11.989076 4.140487 2.295625 44.728401 0.003187 -2.744911 8.345889 -0.210911 0.081971 -0.246020 -0.000000 0.000000 0.000000 0.000000 0.000000 0.000000 0.000000 
0.673944 17.142034 0.003279 41.518636 80.661218 51.793940 -5.310383 0.419983 -6.564592 -2.179294 0.599660 -3.836540 -7.327978 0.549765 2.020351 12.140370 -9.618372 -10.288762 -3.964408 -0.288575 -0.739291 0.000000 0.000000 0.000000 -2.575992 24.182227 0.484228 -66.016524 7.018610 -7.643251 -2.251288 -49.167802 0.003425 12.375240 -0.587201 -0.063420 -0.150593 0.001969 -0.000000 0.000000 0.000000 0.000000 0.000000 0.000000 0.000000 21.552634 -1.971003 -0.728069 73.030012 11.594833 4.137280 2.315480 44.159034 0.003178 -2.878696 8.330486 -0.220536 0.084284 -0.240046 -0.000000 0.000000 0.000000 0.000000 0.000000 0.000000 0.000000 
0.801646 17.158893 0.017664 39.813713 80.218019 50.005357 -5.201982 0.266012 -6.453831 -2.132728 0.438620 -3.806995 -7.295893 0.387624 2.019961 12.106430 -9.818520 -10.303163 -3.979346 -0.289318 -0.742687 0.000000 0.000000 0.000000 -2.590416 23.778192 0.464328 -66.232195 6.515484 -6.959741 -2.229934 -49.420622 0.002493 12.419882 -0.640696 -0.070105 -0.150748 0.007091 -0.000000 0.000000 0.000000 0.000000 0.000000 0.000000 0.000000 21.640813 -2.345329 -0.704425 73.082792 11.185983 4.148620 2.333939 43.630709 0.003208 -2.998777 8.307891 -0.228963 0.086406 -0.234162 -0.000000 0.000000 0.000000 0.000000 0.000000 0.000000 0.000000 
0.927642 17.175733 0.031828 37.968346 79.754787 48.080528 -5.047423 0.113886 -6.343418 -2.076381 0.275444 -3.779024 -7.261820 0.223523 2.013379 12.054996 -10.020531 -10.309951 -3.992127 -0.289967 -0.743561 0.000000 0.000000 0.000000 -2.606120 23.337365 0.446373 -66.423169 6.042830 -6.232335 -2.205520 -49.724968 0.001422 12.450356 -0.657988 -0.072790 -0.151068 0.012407 -0.000000 0.000000 0.000000 0.000000 0.000000 0.000000 0.000000 21.695469 -2.725846 -0.680201 73.124472 10.764619 4.175003 2.351375 43.143380 0.003269 -3.111541 8.285425 -0.236788 0.088447 -0.228449 -0.000000 0.000000 0.000000 0.000000 0.000000 0.000000 0.000000 
1.052150 17.192220 0.045979 36.045173 79.269615 46.085014 -4.853184 -0.039194 -6.236719 -2.011478 0.107957 -3.752607 -7.225608 0.055336 2.003277 11.987961 -10.225037 -10.311175 -4.002301 -0.290458 -0.742513 0.000000 0.000000 0.000000 -2.617252 22.873080 0.430265 -66.589572 5.591604 -5.467877 -2.178324 -50.082732 0.000214 12.470390 -0.644494 -0.071973 -0.151627 0.018000 -0.000000 0.000000 0.000000 0.000000 0.000000 0.000000 0.000000 21.717467 -3.113146 -0.657223 73.158023 10.330681 4.214730 2.367156 42.703114 0.003348 -3.224224 8.268523 -0.244712 0.090471 -0.222971 -0.000000 0.000000 0.000000 0.000000 0.000000 0.000000 0.000000 
